<?xml version="1.0" encoding="utf-8"?>
<!-- Generator: Adobe Illustrator 19.0.0, SVG Export Plug-In . SVG Version: 6.00 Build 0)  -->
<svg version="1.1" id="Layer_1" xmlns="http://www.w3.org/2000/svg" xmlns:xlink="http://www.w3.org/1999/xlink" x="0px" y="0px"
	 viewBox="-222 345.9 150 150" style="enable-background:new -222 345.9 150 150;" xml:space="preserve">
<style type="text/css">
	.st0{fill:#FFFFFF;}
	.st1{fill:none;stroke:#A7A9AC;stroke-width:6;stroke-miterlimit:10;}
	.st2{fill:none;stroke:#FFFFFF;stroke-width:4;stroke-miterlimit:10;}
</style>
<g>
	<g>
		<path class="st0" d="M-151.7,457.9h-3.4l-1.4-3.6h-6.1l-1.3,3.6h-3.2l5.9-15.4h3.2L-151.7,457.9z M-157.3,451.9l-2.1-5.7l-2.1,5.7
			H-157.3z"/>
		<path class="st0" d="M-139.9,457.9h-2.9v-5.7c0-1.3,0-2-0.2-2.3s-0.4-0.7-0.5-0.9c-0.2-0.2-0.5-0.4-1.1-0.4
			c-0.5,0-0.9,0.2-1.4,0.4c-0.5,0.2-0.7,0.7-0.9,1.1c-0.2,0.4-0.2,1.3-0.2,2.5v5h-2.9v-11.1h2.7v1.6c0.9-1.3,2.1-2,3.8-2
			c0.7,0,1.3,0.2,1.8,0.4c0.5,0.2,0.9,0.5,1.3,0.9c0.4,0.4,0.5,0.7,0.5,1.3c0,0.5,0.2,1.1,0.2,2v7.3H-139.9z"/>
		<path class="st0" d="M-131.9,446.8v2.3h-2v4.5c0,0.9,0,1.4,0,1.6c0,0.2,0.2,0.4,0.2,0.4s0.4,0.2,0.5,0.2c0.4,0,0.7-0.2,1.3-0.4
			l0.2,2.3c-0.7,0.4-1.4,0.4-2.3,0.4c-0.5,0-1.1,0-1.4-0.2c-0.4-0.2-0.7-0.4-0.9-0.7c-0.2-0.4-0.4-0.7-0.4-1.1s-0.2-1.1-0.2-2.1
			v-4.8h-1.4v-2.3h1.4v-2.1l3-1.8v3.9L-131.9,446.8L-131.9,446.8z"/>
		<path class="st0" d="M-129.7,445.2v-2.7h2.9v2.7H-129.7z M-129.7,457.9v-11.1h2.9v11.1H-129.7z"/>
	</g>
	<g>
		<path class="st0" d="M-211,483.7v-15.4h6.6c1.6,0,2.9,0.2,3.6,0.4c0.7,0.2,1.3,0.7,1.8,1.4c0.5,0.7,0.7,1.4,0.7,2.5
			c0,1.1-0.4,2.1-1.1,2.9c-0.7,0.7-1.6,1.3-3,1.4c0.7,0.4,1.3,0.9,1.6,1.3c0.4,0.4,1.1,1.3,1.8,2.5l1.8,3h-3.8l-2.3-3.4
			c-0.7-1.3-1.4-2-1.6-2.3s-0.5-0.5-0.9-0.7c-0.4-0.2-0.9-0.2-1.6-0.2h-0.7v6.4h-2.9V483.7z M-208,474.8h2.3c1.4,0,2.5,0,2.9-0.2
			c0.4-0.2,0.7-0.4,0.9-0.7c0.2-0.4,0.4-0.7,0.4-1.1c0-0.5-0.2-0.9-0.4-1.3s-0.7-0.5-1.3-0.5c-0.2,0-1.1,0-2.3,0h-2.5L-208,474.8
			L-208,474.8z"/>
		<path class="st0" d="M-193.5,476l-2.7-0.5c0.4-1.1,0.9-1.8,1.6-2.3s1.8-0.7,3.2-0.7c1.3,0,2.3,0.2,2.9,0.5
			c0.5,0.4,1.1,0.7,1.4,1.3c0.4,0.5,0.4,1.4,0.4,2.7v3.4c0,0.9,0,1.8,0.2,2.1c0.2,0.4,0.4,0.9,0.5,1.4h-2.9c0-0.2-0.2-0.5-0.4-0.9
			c0-0.2,0-0.4-0.2-0.4c-0.5,0.5-1.1,0.9-1.6,1.1s-1.3,0.4-1.8,0.4c-1.1,0-2-0.4-2.7-0.9s-1.1-1.4-1.1-2.3c0-0.7,0.2-1.3,0.5-1.6
			c0.4-0.4,0.7-0.9,1.3-1.1c0.5-0.2,1.3-0.5,2.3-0.7c1.4-0.2,2.3-0.5,2.9-0.7v-0.4c0-0.5-0.2-0.9-0.4-1.3s-0.9-0.4-1.6-0.4
			c-0.5,0-0.9,0.2-1.3,0.4C-193.1,475.3-193.3,475.5-193.5,476z M-189.5,478.3c-0.4,0.2-0.9,0.4-1.8,0.5s-1.4,0.4-1.6,0.5
			c-0.4,0.4-0.5,0.5-0.5,1.1c0,0.4,0.2,0.7,0.5,1.1c0.4,0.4,0.7,0.5,1.3,0.5c0.5,0,1.1-0.2,1.4-0.5c0.4-0.2,0.5-0.5,0.7-0.9
			c0-0.2,0.2-0.7,0.2-1.4v-0.9H-189.5z"/>
		<path class="st0" d="M-184,484.4l3.4,0.4c0,0.4,0.2,0.7,0.4,0.9c0.4,0.2,0.7,0.4,1.3,0.4c0.7,0,1.4-0.2,1.8-0.4
			c0.2-0.2,0.5-0.4,0.5-0.7c0.2-0.2,0.2-0.7,0.2-1.4v-1.6c-0.9,1.3-2,1.8-3.4,1.8c-1.4,0-2.7-0.7-3.6-2c-0.7-1.1-1.1-2.3-1.1-3.8
			c0-1.8,0.5-3.2,1.4-4.3c0.9-1.1,2-1.4,3.4-1.4c1.4,0,2.5,0.5,3.4,1.8v-1.6h2.7v10c0,1.3-0.2,2.3-0.4,2.9c-0.2,0.5-0.5,1.1-0.9,1.6
			c-0.4,0.5-0.9,0.7-1.6,0.9c-0.7,0.2-1.4,0.4-2.5,0.4c-2,0-3.2-0.4-3.9-0.9c-0.7-0.5-1.3-1.4-1.3-2.5
			C-184,484.6-184,484.6-184,484.4z M-181.3,477.8c0,1.3,0.2,2,0.7,2.7c0.5,0.7,1.1,0.9,1.6,0.9c0.7,0,1.3-0.4,1.8-0.9
			c0.5-0.5,0.7-1.4,0.7-2.5s-0.2-2-0.7-2.5c-0.5-0.5-1.1-0.9-1.8-0.9s-1.3,0.4-1.8,0.9C-181.3,476-181.3,476.7-181.3,477.8z"/>
		<path class="st0" d="M-170.7,484.4l3.4,0.4c0,0.4,0.2,0.7,0.4,0.9c0.4,0.2,0.7,0.4,1.3,0.4c0.7,0,1.4-0.2,1.8-0.4
			c0.2-0.2,0.5-0.4,0.5-0.7c0.2-0.2,0.2-0.7,0.2-1.4v-1.6c-0.9,1.3-2,1.8-3.4,1.8c-1.4,0-2.7-0.7-3.6-2c-0.7-1.1-1.1-2.3-1.1-3.8
			c0-1.8,0.5-3.2,1.4-4.3c0.9-1.1,2-1.4,3.4-1.4c1.4,0,2.5,0.5,3.4,1.8v-1.6h2.7v10c0,1.3-0.2,2.3-0.4,2.9c-0.2,0.5-0.5,1.1-0.9,1.6
			c-0.4,0.5-0.9,0.7-1.6,0.9c-0.7,0.2-1.4,0.4-2.5,0.4c-2,0-3.2-0.4-3.9-0.9c-0.7-0.5-1.3-1.4-1.3-2.5
			C-170.7,484.6-170.7,484.6-170.7,484.4z M-168.2,477.8c0,1.3,0.2,2,0.7,2.7c0.5,0.7,1.1,0.9,1.6,0.9c0.7,0,1.3-0.4,1.8-0.9
			c0.5-0.5,0.7-1.4,0.7-2.5s-0.2-2-0.7-2.5c-0.5-0.5-1.1-0.9-1.8-0.9s-1.3,0.4-1.8,0.9C-168.2,476-168.2,476.7-168.2,477.8z"/>
		<path class="st0" d="M-157.5,471v-2.7h2.9v2.7H-157.5z M-157.5,483.7v-11.1h2.9v11.1H-157.5z"/>
		<path class="st0" d="M-141.4,483.7h-2.9V478c0-1.3,0-2-0.2-2.3c-0.2-0.4-0.4-0.7-0.5-0.9c-0.2-0.2-0.5-0.4-1.1-0.4
			c-0.5,0-0.9,0.2-1.4,0.4c-0.5,0.2-0.7,0.7-0.9,1.1s-0.2,1.3-0.2,2.5v5h-2.9v-11.1h2.7v1.6c0.9-1.3,2.1-2,3.8-2
			c0.7,0,1.3,0.2,1.8,0.4c0.5,0.2,0.9,0.5,1.3,0.9c0.4,0.4,0.5,0.7,0.5,1.3c0,0.5,0.2,1.1,0.2,2v7.3H-141.4z"/>
		<path class="st0" d="M-138.5,484.4l3.4,0.4c0,0.4,0.2,0.7,0.4,0.9c0.4,0.2,0.7,0.4,1.3,0.4c0.7,0,1.4-0.2,1.8-0.4
			c0.2-0.2,0.5-0.4,0.5-0.7c0.2-0.2,0.2-0.7,0.2-1.4v-1.6c-0.9,1.3-2,1.8-3.4,1.8c-1.4,0-2.7-0.7-3.6-2c-0.7-1.1-1.1-2.3-1.1-3.8
			c0-1.8,0.5-3.2,1.4-4.3c0.9-1.1,2-1.4,3.4-1.4c1.4,0,2.5,0.5,3.4,1.8v-1.6h2.7v10c0,1.3-0.2,2.3-0.4,2.9s-0.5,1.1-0.9,1.6
			c-0.4,0.5-0.9,0.7-1.6,0.9c-0.7,0.2-1.4,0.4-2.5,0.4c-2,0-3.2-0.4-3.9-0.9c-0.7-0.5-1.3-1.4-1.3-2.5
			C-138.5,484.6-138.5,484.6-138.5,484.4z M-136,477.8c0,1.3,0.2,2,0.7,2.7c0.5,0.7,1.1,0.9,1.6,0.9c0.7,0,1.3-0.4,1.8-0.9
			c0.5-0.5,0.7-1.4,0.7-2.5s-0.2-2-0.7-2.5c-0.5-0.5-1.1-0.9-1.8-0.9s-1.3,0.4-1.8,0.9C-136,476-136,476.7-136,477.8z"/>
		<path class="st0" d="M-109.3,478l3,0.9c-0.5,1.6-1.3,2.9-2.3,3.8c-1.1,0.9-2.5,1.3-4.1,1.3c-2,0-3.8-0.7-5-2.1
			c-1.3-1.4-2-3.2-2-5.7c0-2.5,0.7-4.5,2-5.9c1.3-1.4,3-2.1,5.2-2.1c2,0,3.4,0.5,4.7,1.6c0.7,0.7,1.3,1.6,1.6,2.9l-3,0.7
			c-0.2-0.7-0.5-1.4-1.1-2c-0.5-0.5-1.3-0.7-2.1-0.7c-1.1,0-2.1,0.4-2.7,1.3c-0.5,0.9-1.1,2.1-1.1,3.9c0,2,0.4,3.4,1.1,4.1
			c0.7,0.7,1.6,1.3,2.7,1.3c0.9,0,1.6-0.2,2.1-0.7S-109.7,479.2-109.3,478z"/>
		<path class="st0" d="M-97.3,480.1l2.9,0.5c-0.4,1.1-0.9,2-1.8,2.5c-0.9,0.5-1.8,0.9-3,0.9c-2,0-3.4-0.7-4.3-2
			c-0.7-1.1-1.1-2.3-1.1-3.8c0-1.8,0.5-3.2,1.4-4.3c0.9-1.1,2.1-1.6,3.6-1.6c1.6,0,3,0.5,3.9,1.6c0.9,1.1,1.4,2.7,1.4,5h-7.3
			c0,0.9,0.2,1.6,0.7,2c0.5,0.4,1.1,0.7,1.6,0.7c0.5,0,0.9-0.2,1.3-0.4C-97.7,481.2-97.3,480.7-97.3,480.1z M-97.1,477.1
			c0-0.9-0.2-1.4-0.7-2c-0.5-0.5-0.9-0.7-1.6-0.7c-0.7,0-1.3,0.2-1.6,0.7c-0.4,0.5-0.5,1.1-0.5,2H-97.1z"/>
		<path class="st0" d="M-91.8,483.7v-15.4h2.9v15.4H-91.8z"/>
		<path class="st0" d="M-85.9,483.7v-15.4h2.9v15.4H-85.9z"/>
	</g>
	<rect id="XMLID_1_" x="-222" y="345.9" class="st1" width="150" height="150"/>
	<g>
		<circle id="XMLID_2_" class="st2" cx="-147" cy="396.1" r="39"/>
		<line id="XMLID_4_" class="st2" x1="-120.1" y1="368.3" x2="-173.5" y2="425.2"/>
	</g>
</g>
</svg>
