<?xml version="1.0" encoding="utf-8"?>
<!-- Generator: Adobe Illustrator 19.0.0, SVG Export Plug-In . SVG Version: 6.00 Build 0)  -->
<svg version="1.1" id="Layer_1" xmlns="http://www.w3.org/2000/svg" xmlns:xlink="http://www.w3.org/1999/xlink" x="0px" y="0px"
	 viewBox="-222 345.9 150 150" style="enable-background:new -222 345.9 150 150;" xml:space="preserve">
<style type="text/css">
	.st0{enable-background:new    ;}
	.st1{fill:#FFFFFF;}
	.st2{fill:none;stroke:#A7A9AC;stroke-width:6;stroke-miterlimit:10;}
</style>
<g class="st0">
	<path class="st1" d="M-152.3,454.4v-19.7h4v16.3h10v3.3H-152.3z"/>
	<path class="st1" d="M-135.5,454.4v-19.8h6l3.6,13.5l3.6-13.5h6v19.8h-3.7v-15.6l-3.9,15.6h-3.9l-3.9-15.6v15.6H-135.5z"/>
	<path class="st1" d="M-113.4,448l3.9-0.4c0.2,1.3,0.7,2.3,1.4,2.9c0.7,0.6,1.7,0.9,2.9,0.9c1.3,0,2.3-0.3,2.9-0.8s1-1.2,1-1.9
		c0-0.5-0.1-0.9-0.4-1.2c-0.3-0.3-0.8-0.6-1.4-0.9c-0.5-0.2-1.5-0.5-3.2-0.9c-2.1-0.5-3.7-1.2-4.5-2c-1.2-1.1-1.8-2.4-1.8-4
		c0-1,0.3-2,0.9-2.8c0.6-0.9,1.4-1.5,2.5-2c1.1-0.5,2.4-0.7,3.9-0.7c2.5,0,4.4,0.5,5.6,1.6c1.3,1.1,1.9,2.5,2,4.4l-4,0.2
		c-0.2-1-0.5-1.8-1.1-2.2c-0.6-0.4-1.4-0.7-2.5-0.7c-1.2,0-2.1,0.2-2.7,0.7c-0.4,0.3-0.6,0.7-0.6,1.2c0,0.5,0.2,0.9,0.6,1.2
		c0.5,0.4,1.7,0.9,3.7,1.3c1.9,0.5,3.4,0.9,4.3,1.4c0.9,0.5,1.7,1.2,2.2,2c0.5,0.9,0.8,1.9,0.8,3.2c0,1.1-0.3,2.2-0.9,3.2
		s-1.5,1.7-2.7,2.2s-2.6,0.7-4.3,0.7c-2.5,0-4.4-0.6-5.8-1.7C-112.3,451.9-113.1,450.2-113.4,448z"/>
</g>
<g id="XMLID_2_">
	<path id="XMLID_31_" class="st1" d="M-177.1,395.2c1.5-2.5,2.7-4.5,4-6.6c0.2-0.4,0.8-0.7,1.3-0.7c2.8,0.1,5.6,0.1,8.3,0.5
		c5.3,0.9,9.1,5.6,9.6,10.9c2.6-1.7,6.6-5.8,10.1-4c0.3,0.2,0.9-0.1,1.3-0.4c3.1-2.1,6.2-4.2,9.3-6.2c3.4-2.3,6.7-4.6,10.1-6.8
		c0.4-0.3,1.4-0.4,1.5-0.2c0.6,0.7-0.2,1.1-0.7,1.4c-4.7,3.2-9.4,6.4-14.1,9.5c-1.6,1.1-3.2,2.2-4.8,3.2c-0.7,0.5-1,1-0.9,1.9
		c0.4,2.1-0.5,3.5-2.2,4.6c-3.9,2.5-7.7,5.1-11.6,7.7c-1.2,0.8-2.6,1.2-4,0.5c-1.6-0.7-2.4-2.1-2.4-3.9c0-1.7,0-3.5,0-5.2
		c0-1,0.1-1.9-1.3-1.9c-1.4,0-1.6,0.7-1.6,1.8c0,8.9,0,17.9,0,26.8c0,13.2,0,26.3,0,39.5c0,2.4-0.5,4.4-2.8,5.7
		c-2.7,1.6-6.9,0-7.6-3c-0.3-1.2-0.5-2.4-0.5-3.6c0-13.7,0-27.4,0-41.1c0-1.6-0.2-1.7-1.6-1.6c-1.3,0.1-0.8,1.1-0.8,1.7
		c0,14.2,0,28.3,0,42.5c0,2-0.7,3.7-2.4,4.9c-1.7,1.1-3.7,1-5.4,0.4c-1.9-0.8-3.1-2.6-3.1-4.8c0-4.4,0-8.9,0-13.3
		c0-18.1,0-36.1,0-54.2c0-0.9-0.1-1.5-1.2-1.5c-1.2,0-1.4,0.5-1.4,1.5c0,6.6,0,13.2,0,19.8c0,1.8-0.5,3.3-2.2,4.3
		c-2.1,1.2-5.7-0.4-5.7-3.4c0.1-4.3,0.6-8.6,0.3-13c-0.4-4.6-1.2-9.4,0.6-13.9c1.2-3,3.7-5.5,6.6-6.8c4.6-2,10.3-1.6,12.8,2.8
		C-178.8,392.6-178,393.7-177.1,395.2z"/>
	<path id="XMLID_30_" class="st1" d="M-151.9,411.6c0,0.8-0.1,1.7,0,2.5c0.1,0.4,0.5,0.8,0.9,0.9c0.3,0.2,0.8,0,1.2,0
		c16.7,0,33.4,0,50.1,0c1.4,0,1.7-0.5,1.7-1.8c0-11.6,0-23.1,0-34.7c0-2,0-2-2-2c-14.2,0-28.4,0-42.6,0c-2.5,0-5,0-7.4,0
		c-1.7,0-1.8,0.1-1.8,1.8c0,4.4,0,8.8,0,13.1c0,0.3,0,0.7-0.1,0.9c-0.1,0.3-0.4,0.7-0.7,0.7c-0.2,0-0.6-0.3-0.8-0.5
		c-0.5-0.7-0.8-1.6-1.4-2.2c-1.4-1.3-1.6-2.8-1.5-4.5c0.1-3.4,0-6.8,0-10.2c0-2.4,0.8-3.3,3.2-3.3c18.8,0,37.6,0,56.4,0
		c2,0,2.7,0.7,2.7,2.7c0,13.8,0,27.5,0,41.3c0,2.3-0.7,3-3,3c-18,0-35.9,0-53.9,0c-0.9,0-1.8,0-2.7,0c-1.6-0.1-2.4-0.6-2.7-2.2
		c-0.3-1.5-0.3-3.2,1-3.9c0.9-0.5,1.8-1.2,2.8-1.7C-152.4,411.5-152.2,411.6-151.9,411.6z"/>
	<path id="XMLID_29_" class="st1" d="M-186.4,376.8c-0.1-4.6,4-9.2,9.2-9.2c5.1,0,9.3,4.4,9.2,9.2c-0.1,5-3.8,9.1-9.2,9.2
		C-182.3,386-186.4,381.9-186.4,376.8z"/>
</g>
<rect id="XMLID_1_" x="-222" y="345.9" class="st2" width="150" height="150"/>
</svg>
