<?xml version="1.0" encoding="utf-8"?>
<!-- Generator: Adobe Illustrator 19.0.0, SVG Export Plug-In . SVG Version: 6.00 Build 0)  -->
<svg version="1.1" id="Layer_1" xmlns="http://www.w3.org/2000/svg" xmlns:xlink="http://www.w3.org/1999/xlink" x="0px" y="0px"
	 viewBox="-222 345.9 150 150" style="enable-background:new -222 345.9 150 150;" xml:space="preserve">
<style type="text/css">
	.st0{fill:#FFFFFF;}
	.st1{fill:none;stroke:#A7A9AC;stroke-width:6;stroke-miterlimit:10;}
	.st2{enable-background:new    ;}
	.st3{font-family:'Arial-BoldMT';}
	.st4{font-size:19.911px;}
</style>
<g>
	<g>
		<path id="XMLID_54_" class="st0" d="M-180.5,373.1c0.1-0.7,0.2-1.3,0.3-2c0.7-3.2,2.8-5.1,6.2-5.5c0.8-0.1,1.7-0.1,2.5-0.2
			c1.7,0,3.4,0,5.2,0c0.1,0,0.2,0,0.4,0c0-0.7,0-1.4,0-2.2c1.9,0,3.8,0,5.6,0c0.1-0.1,0.1-0.2,0.1-0.3c1-3.6,4.3-6.2,8.1-6.2
			c3.8,0,7.1,2.5,8.1,6.1c0.1,0.3,0.2,0.4,0.5,0.4c1.6,0,3.2,0,4.8,0c0.1,0,0.2,0,0.4,0c0,0.7,0,1.4,0,2.2c0.2,0,0.3,0,0.4,0
			c2.3,0,4.7,0,7,0c1,0,2.1,0.1,3.1,0.4c2.7,0.8,4.3,2.7,4.8,5.4c0.2,1,0.2,2,0.2,3c0,7.4,0,14.9,0,22.4c0,0.1,0,0.2,0,0.4
			c-0.1,0-0.2,0-0.4,0c-1,0-2.1,0-3.1,0c-0.3,0-0.4-0.1-0.4-0.4c0-7.4,0-14.8,0-22.2c0-0.7,0-1.5-0.1-2.2c-0.3-1.7-1.2-2.6-3-2.8
			c-0.5-0.1-1-0.1-1.5-0.1c-2.2,0-4.4,0-6.6,0c-0.1,0-0.2,0-0.3,0c0,3,0,5.8,0,8.8c-9.2,0-18.3,0-27.5,0c0-3,0-5.8,0-8.8
			c-0.1,0-0.2-0.1-0.2-0.1c-2.2,0-4.5,0-6.7,0.1c-0.5,0-0.9,0.1-1.4,0.2c-1.3,0.4-1.9,1.2-2.2,2.5c-0.1,0.7-0.2,1.4-0.2,2.2
			c0,12.7,0,25.5,0,38.3c0,0.7,0.1,1.4,0.1,2c0.3,1.7,1.2,2.6,3,2.8c0.7,0.1,1.4,0.1,2.1,0.1c11.3,0,22.5,0,33.7,0
			c0.2,0,0.4,0,0.6,0c0,1.3,0,2.6,0,3.9c-0.1,0-0.2,0-0.2,0c-11.6,0-23.2,0-34.8,0c-1.6,0-3.2-0.2-4.7-1c-1.9-1-2.9-2.7-3.3-4.7
			c-0.1-0.6-0.2-1.2-0.3-1.8C-180.5,400.3-180.5,386.7-180.5,373.1z M-142.3,374.4c0-2.4,0-4.7,0-7.1c-1.8,0-3.6,0-5.4,0
			c0-0.7,0-1.4,0-2c0-2.2-1.7-4.1-3.8-4.4c-2.3-0.3-4.4,1-5,3.1c-0.1,0.5-0.2,1-0.2,1.5c-0.1,0.6,0,1.2,0,1.8c-1.8,0-3.6,0-5.4,0
			c0,2.4,0,4.7,0,7.1C-155.5,374.4-148.9,374.4-142.3,374.4z"/>
		<path id="XMLID_51_" class="st0" d="M-118.2,421.2c-0.7-0.6-1.6-1.1-2.4-1.7c-0.2-0.1-0.3-0.2-0.5-0.1l-0.1,0.1
			c-0.7,0.1-0.9,0.6-1,1.3c-0.1,0.7-0.2,1.4-0.4,2c0,0.1-0.1,0.2-0.2,0.2c-1.4,0-2.7,0-4.1,0c-0.1-0.7-0.2-1.4-0.4-2.1
			c0-0.1-0.1-0.2-0.1-0.2c0.1-0.9-0.5-1.2-1.2-1.4c-0.1,0-0.2,0-0.4,0.1c-0.8,0.6-1.7,1.2-2.4,1.7c-1-1-2-2-3.1-3
			c0.6-0.8,1.1-1.6,1.7-2.4c0.2-0.2,0.2-0.4,0.1-0.6c-0.1-0.1-0.1-0.1-0.1-0.2c-0.1-0.6-0.5-0.7-1-0.8c-0.7-0.1-1.5-0.2-2.2-0.4
			c-0.1,0-0.2-0.1-0.2-0.2c0-1.4,0-2.7,0-4.1c0.8-0.1,1.5-0.3,2.3-0.4c0.6-0.1,1-0.2,1.2-0.9c0.1-0.3,0.1-0.5-0.1-0.8
			c-0.6-0.7-1.1-1.5-1.7-2.3c1-1,2-2,3-3c0.4,0.3,0.9,0.7,1.4,1c0.3,0.2,0.7,0.5,1,0.7c0.2,0.1,0.3,0.2,0.5,0.1l0,0
			c0.8-0.1,1-0.7,1-1.4c0.1-0.7,0.2-1.4,0.4-2.2c0.1,0,0.2,0,0.3,0c1.2,0,2.4,0,3.6,0c0.2,0,0.4,0.1,0.4,0.3
			c0.1,0.9,0.3,1.8,0.4,2.7c0,0.1,0.2,0.2,0.2,0.3s0.1,0,0.2,0.1c0.6,0.4,1,0.2,1.5-0.2c0.6-0.5,1.2-0.9,1.8-1.4c1,1,2,2,3,3
			c-0.2,0.2-0.4,0.6-0.6,0.8c-0.4,0.6-0.7,1-1.1,1.6c-0.1,0.1-0.1,0.1-0.1,0.2c0.1,0.4,0.2,0.8,0.4,1.2c0.1,0.1,0.2,0.1,0.3,0.1
			c0.9,0.1,1.7,0.3,2.6,0.4c0.1,0,0.2,0.1,0.3,0.1c0,1.4,0,2.8,0,4.2c-0.7,0.1-1.5,0.2-2.3,0.4c-1,0.2-1,0.2-1.4,1.2
			c-0.1,0.1,0.1,0.2,0.1,0.4c0.6,0.8,1.2,1.7,1.7,2.5C-116.2,419.2-117.2,420.2-118.2,421.2z M-128.1,411.7c0,1.8,1.5,3.4,3.4,3.4
			c1.8,0,3.4-1.5,3.4-3.4c0-1.8-1.5-3.4-3.4-3.4C-126.5,408.3-128.1,409.8-128.1,411.7z"/>
		<path id="XMLID_50_" class="st0" d="M-167.8,389.1c0-1.3,0-2.6,0-3.8c10.8,0,21.5,0,32.2,0c0,1.3,0,2.5,0,3.8
			C-146.2,389.1-157,389.1-167.8,389.1z"/>
		<path id="XMLID_49_" class="st0" d="M-135.5,394.9c0,1.3,0,2.5,0,3.8c-10.8,0-21.5,0-32.2,0c0-1.3,0-2.5,0-3.8
			C-157,394.9-146.3,394.9-135.5,394.9z"/>
		<path id="XMLID_48_" class="st0" d="M-138.1,404.6c0,1.3,0,2.5,0,3.8c-9.8,0-19.8,0-29.6,0c0-1.3,0-2.5,0-3.8
			C-157.9,404.6-148,404.6-138.1,404.6z"/>
	</g>
	<rect id="XMLID_2_" x="-222" y="345.9" class="st1" width="150" height="150"/>
	<g>
		<g class="st2">
			<path class="st0" d="M-175,442.3v-15.4h6.6c1.6,0,2.9,0.2,3.6,0.4c0.7,0.2,1.3,0.7,1.8,1.4c0.5,0.7,0.7,1.4,0.7,2.5
				c0,1.1-0.4,2.2-1.1,2.9c-0.7,0.7-1.6,1.3-3,1.4c0.7,0.4,1.3,0.9,1.6,1.3c0.4,0.4,1.1,1.3,1.8,2.5l1.8,3h-3.8l-2.3-3.4
				c-0.7-1.3-1.4-2-1.6-2.3c-0.2-0.4-0.5-0.5-0.9-0.7c-0.4-0.2-0.9-0.2-1.6-0.2h-0.7v6.5h-2.9V442.3z M-171.9,433.5h2.3
				c1.4,0,2.5,0,2.9-0.2s0.7-0.4,0.9-0.7c0.2-0.4,0.4-0.7,0.4-1.1c0-0.5-0.2-0.9-0.4-1.3c-0.2-0.4-0.7-0.5-1.3-0.5
				c-0.2,0-1.1,0-2.3,0h-2.5L-171.9,433.5L-171.9,433.5z"/>
			<path class="st0" d="M-152.2,442.3v-1.6c-0.4,0.5-0.9,1.1-1.6,1.4c-0.7,0.4-1.4,0.5-2.2,0.5s-1.4-0.2-2-0.5
				c-0.5-0.4-1.1-0.7-1.3-1.4s-0.4-1.4-0.4-2.5v-7h2.9v5.2c0,1.6,0,2.5,0.2,2.9c0.2,0.4,0.4,0.7,0.5,0.9s0.7,0.4,1.1,0.4
				c0.5,0,0.9-0.2,1.4-0.4c0.5-0.2,0.7-0.5,0.9-1.1c0.2-0.5,0.2-1.4,0.2-3v-4.7h2.9v11.1h-2.7V442.3z"/>
			<path class="st0" d="M-146.5,442.3v-15.4h2.9v15.4H-146.5z"/>
			<path class="st0" d="M-133.9,438.9l2.9,0.5c-0.4,1.1-0.9,2-1.8,2.5c-0.9,0.5-1.8,0.9-3,0.9c-2,0-3.4-0.7-4.3-2
				c-0.7-1.1-1.1-2.3-1.1-3.8c0-1.8,0.5-3.2,1.4-4.3c0.9-1.1,2.2-1.6,3.6-1.6c1.6,0,3,0.5,3.9,1.6c0.9,1.1,1.4,2.7,1.4,5h-7.4
				c0,0.9,0.2,1.6,0.7,2c0.5,0.4,1.1,0.7,1.6,0.7c0.5,0,0.9-0.2,1.3-0.4S-134.1,439.4-133.9,438.9z M-133.7,435.8
				c0-0.9-0.2-1.4-0.7-2c-0.5-0.5-0.9-0.7-1.6-0.7c-0.7,0-1.3,0.2-1.6,0.7c-0.4,0.5-0.5,1.1-0.5,2H-133.7z"/>
			<path class="st0" d="M-129.4,439.3l3-0.5c0.2,0.5,0.4,1.1,0.7,1.3c0.4,0.2,0.9,0.4,1.6,0.4s1.3-0.2,1.8-0.4
				c0.2-0.2,0.4-0.5,0.4-0.7s0-0.4-0.2-0.5c-0.2-0.2-0.5-0.4-1.1-0.4c-2.3-0.5-3.9-1.1-4.5-1.4c-0.9-0.5-1.3-1.4-1.3-2.5
				c0-0.9,0.4-1.8,1.1-2.5c0.7-0.7,2-1.1,3.6-1.1s2.7,0.2,3.4,0.7c0.7,0.5,1.3,1.3,1.6,2.2l-2.9,0.5c-0.2-0.4-0.4-0.7-0.7-1.1
				c-0.4-0.4-0.9-0.4-1.4-0.4c-0.7,0-1.3,0.2-1.6,0.4c-0.2,0.2-0.4,0.4-0.4,0.5c0,0.2,0.2,0.4,0.4,0.5c0.2,0.2,1.3,0.5,2.7,0.9
				c1.4,0.4,2.7,0.7,3.2,1.3c0.5,0.5,0.9,1.3,0.9,2.2c0,1.1-0.4,2-1.3,2.7c-0.9,0.7-2.2,1.1-3.8,1.1c-1.4,0-2.7-0.4-3.6-0.9
				C-128.5,440.9-129.2,440.2-129.4,439.3z"/>
		</g>
		<g class="st2">
			<path class="st0" d="M-207.3,483.2v-15.4h6.6c1.6,0,2.9,0.2,3.6,0.4s1.3,0.7,1.8,1.4s0.7,1.4,0.7,2.5c0,1.1-0.4,2.2-1.1,2.9
				c-0.7,0.7-1.6,1.3-3,1.4c0.7,0.4,1.3,0.9,1.6,1.3c0.4,0.4,1.1,1.3,1.8,2.5l1.8,3h-3.8l-2.3-3.4c-0.7-1.3-1.4-2-1.6-2.3
				s-0.5-0.5-0.9-0.7s-0.9-0.2-1.6-0.2h-0.7v6.5h-2.9V483.2z M-204.2,474.4h2.3c1.4,0,2.5,0,2.9-0.2c0.4-0.2,0.7-0.4,0.9-0.7
				c0.2-0.4,0.4-0.7,0.4-1.1c0-0.5-0.2-0.9-0.4-1.3c-0.2-0.4-0.7-0.5-1.3-0.5c-0.2,0-1.1,0-2.3,0h-2.5L-204.2,474.4L-204.2,474.4z"
				/>
			<path class="st0" d="M-185.4,479.8l2.9,0.5c-0.4,1.1-0.9,2-1.8,2.5c-0.9,0.5-1.8,0.9-3,0.9c-2,0-3.4-0.7-4.3-2
				c-0.7-1.1-1.1-2.3-1.1-3.8c0-1.8,0.5-3.2,1.4-4.3c0.9-1.1,2.2-1.6,3.6-1.6c1.6,0,3,0.5,3.9,1.6c0.9,1.1,1.4,2.7,1.4,5h-7.4
				c0,0.9,0.2,1.6,0.7,2c0.5,0.4,1.1,0.7,1.6,0.7c0.5,0,0.9-0.2,1.3-0.4C-185.7,480.9-185.6,480.3-185.4,479.8z M-185.2,476.8
				c0-0.9-0.2-1.4-0.7-2c-0.5-0.5-0.9-0.7-1.6-0.7s-1.3,0.2-1.6,0.7c-0.4,0.5-0.5,1.1-0.5,2H-185.2z"/>
			<path class="st0" d="M-180.2,483.9l3.4,0.4c0,0.4,0.2,0.7,0.4,0.9c0.4,0.2,0.7,0.4,1.3,0.4c0.7,0,1.4-0.2,1.8-0.4
				c0.2-0.2,0.5-0.4,0.5-0.7c0.2-0.2,0.2-0.7,0.2-1.4v-1.6c-0.9,1.3-2,1.8-3.4,1.8c-1.4,0-2.7-0.7-3.6-2c-0.7-1.1-1.1-2.3-1.1-3.8
				c0-1.8,0.5-3.2,1.4-4.3c0.9-1.1,2-1.4,3.4-1.4c1.4,0,2.5,0.5,3.4,1.8v-1.6h2.7v10c0,1.3-0.2,2.3-0.4,2.9
				c-0.2,0.5-0.5,1.1-0.9,1.6s-0.9,0.7-1.6,0.9s-1.4,0.4-2.5,0.4c-2,0-3.2-0.4-3.9-0.9c-0.7-0.5-1.3-1.4-1.3-2.5
				C-180.2,484.3-180.2,484.1-180.2,483.9z M-177.5,477.5c0,1.3,0.2,2,0.7,2.7c0.5,0.7,1.1,0.9,1.6,0.9c0.7,0,1.3-0.4,1.8-0.9
				c0.5-0.5,0.7-1.4,0.7-2.5s-0.2-2-0.7-2.5c-0.5-0.5-1.1-0.9-1.8-0.9c-0.7,0-1.3,0.4-1.8,0.9C-177.5,475.7-177.5,476.4-177.5,477.5
				z"/>
			<path class="st0" d="M-159.4,483.2v-1.6c-0.4,0.5-0.9,1.1-1.6,1.4c-0.7,0.4-1.4,0.5-2.2,0.5c-0.7,0-1.4-0.2-2-0.5
				c-0.5-0.4-1.1-0.7-1.3-1.4c-0.2-0.7-0.4-1.4-0.4-2.5v-7h2.9v5.2c0,1.6,0,2.5,0.2,2.9c0.2,0.4,0.4,0.7,0.5,0.9
				c0.2,0.2,0.7,0.4,1.1,0.4c0.5,0,0.9-0.2,1.4-0.4c0.5-0.2,0.7-0.5,0.9-1.1c0.2-0.5,0.2-1.4,0.2-3v-4.7h2.9v11.1h-2.7V483.2z"/>
			<path class="st0" d="M-153.6,483.2v-15.4h2.9v15.4H-153.6z"/>
			<path class="st0" d="M-145.4,475.5l-2.7-0.5c0.4-1.1,0.9-1.8,1.6-2.3s1.8-0.7,3.2-0.7c1.3,0,2.3,0.2,2.9,0.5
				c0.5,0.4,1.1,0.7,1.4,1.3c0.4,0.5,0.4,1.4,0.4,2.7v3.4c0,0.9,0,1.8,0.2,2.2s0.4,0.9,0.5,1.4h-2.9c0-0.2-0.2-0.5-0.4-0.9
				c0-0.2,0-0.4-0.2-0.4c-0.5,0.5-1.1,0.9-1.6,1.1c-0.5,0.2-1.3,0.4-1.8,0.4c-1.1,0-2-0.4-2.7-0.9c-0.7-0.5-1.1-1.4-1.1-2.3
				c0-0.7,0.2-1.3,0.5-1.6c0.4-0.4,0.7-0.9,1.3-1.1c0.5-0.2,1.3-0.5,2.3-0.7c1.4-0.2,2.3-0.5,2.9-0.7v-0.4c0-0.5-0.2-0.9-0.4-1.3
				c-0.2-0.4-0.9-0.4-1.6-0.4c-0.5,0-0.9,0.2-1.3,0.4C-145,474.8-145.2,475-145.4,475.5z M-141.4,477.8c-0.4,0.2-0.9,0.4-1.8,0.5
				s-1.4,0.4-1.6,0.5c-0.4,0.4-0.5,0.5-0.5,1.1c0,0.4,0.2,0.7,0.5,1.1c0.4,0.4,0.7,0.5,1.3,0.5s1.1-0.2,1.4-0.5
				c0.4-0.2,0.5-0.5,0.7-0.9c0-0.2,0.2-0.7,0.2-1.4v-0.9H-141.4z"/>
			<path class="st0" d="M-130.5,472.1v2.3h-2v4.5c0,0.9,0,1.4,0,1.6s0.2,0.4,0.2,0.4s0.4,0.2,0.5,0.2c0.4,0,0.7-0.2,1.3-0.4l0.2,2.3
				c-0.7,0.4-1.4,0.4-2.3,0.4c-0.5,0-1.1,0-1.4-0.2c-0.4-0.2-0.7-0.4-0.9-0.7c-0.2-0.4-0.4-0.7-0.4-1.1c0-0.4-0.2-1.1-0.2-2.2v-4.8
				h-1.4v-2.3h1.4v-2.2l3-1.8v3.9L-130.5,472.1L-130.5,472.1z"/>
			<path class="st0" d="M-128.5,470.7V468h2.9v2.7H-128.5z M-128.5,483.2v-11.1h2.9v11.1H-128.5z"/>
			<path class="st0" d="M-123.1,477.5c0-0.9,0.2-2,0.7-2.9c0.5-0.9,1.3-1.6,2-2.2c0.7-0.5,1.8-0.7,3-0.7c1.6,0,3,0.5,4.1,1.6
				s1.6,2.5,1.6,4.1s-0.5,3-1.6,4.1c-1.1,1.1-2.5,1.6-4.1,1.6c-1.1,0-2-0.2-2.9-0.7c-0.9-0.5-1.6-1.1-2.2-2
				C-123,479.6-123.1,478.7-123.1,477.5z M-120.1,477.7c0,1.1,0.2,2,0.7,2.5c0.5,0.5,1.3,0.9,2,0.9s1.4-0.4,2-0.9
				c0.5-0.5,0.7-1.4,0.7-2.5s-0.2-2-0.7-2.5c-0.5-0.5-1.3-0.9-2-0.9s-1.4,0.4-2,0.9C-119.9,475.7-120.1,476.6-120.1,477.7z"/>
			<path class="st0" d="M-99.1,483.2h-2.9v-5.6c0-1.3,0-2-0.2-2.3c-0.2-0.4-0.4-0.7-0.5-0.9c-0.2-0.2-0.5-0.4-1.1-0.4
				c-0.5,0-0.9,0.2-1.4,0.4c-0.5,0.2-0.7,0.7-0.9,1.1s-0.2,1.3-0.2,2.5v5h-2.9v-11.1h2.7v1.6c0.9-1.3,2.2-2,3.8-2
				c0.7,0,1.3,0.2,1.8,0.4c0.5,0.2,0.9,0.5,1.3,0.9c0.4,0.4,0.5,0.7,0.5,1.3c0,0.5,0.2,1.1,0.2,2v7.2H-99.1z"/>
			<path class="st0" d="M-97.1,480.2l3-0.5c0.2,0.5,0.4,1.1,0.7,1.3s0.9,0.4,1.6,0.4s1.3-0.2,1.8-0.4c0.2-0.2,0.4-0.5,0.4-0.7
				s0-0.4-0.2-0.5c-0.2-0.2-0.5-0.4-1.1-0.4c-2.3-0.5-3.9-1.1-4.5-1.4c-0.9-0.5-1.3-1.4-1.3-2.5c0-0.9,0.4-1.8,1.1-2.5
				c0.7-0.7,2-1.1,3.6-1.1c1.6,0,2.7,0.2,3.4,0.7s1.3,1.3,1.6,2.2l-2.9,0.5c-0.2-0.4-0.4-0.7-0.7-1.1s-0.9-0.4-1.4-0.4
				c-0.7,0-1.3,0.2-1.6,0.4c-0.2,0.2-0.4,0.4-0.4,0.5c0,0.2,0.2,0.4,0.4,0.5c0.2,0.2,1.3,0.5,2.7,0.9s2.7,0.7,3.2,1.3
				c0.5,0.5,0.9,1.3,0.9,2.2c0,1.1-0.4,2-1.3,2.7c-0.9,0.7-2.2,1.1-3.8,1.1c-1.4,0-2.7-0.4-3.6-0.9C-96.2,481.8-97,481.1-97.1,480.2
				z"/>
		</g>
		<text transform="matrix(1 0 0 1 -154.1896 463.2108)" class="st0 st3 st4">&amp;</text>
	</g>
</g>
</svg>
