<?xml version="1.0" encoding="utf-8"?>
<!-- Generator: Adobe Illustrator 19.0.0, SVG Export Plug-In . SVG Version: 6.00 Build 0)  -->
<svg version="1.1" id="Layer_1" xmlns="http://www.w3.org/2000/svg" xmlns:xlink="http://www.w3.org/1999/xlink" x="0px" y="0px"
	 viewBox="-222 345.9 150 150" style="enable-background:new -222 345.9 150 150;" xml:space="preserve">
<style type="text/css">
	.st0{fill:none;stroke:#A7A9AC;stroke-width:6;stroke-miterlimit:10;}
	.st1{fill:#FFFFFF;}
</style>
<rect id="XMLID_1_" x="-222" y="345.9" class="st0" width="150" height="150"/>
<path class="st1" d="M-105.7,362.9c0-6.4-4-10.5-10.5-10.5c-25.3,0-50.6,0-75.9,0c-6.3,0-10.4,4.1-10.4,10.4c0,35.1,0,70.1,0,105.2
	c0,6.3,4.1,10.4,10.4,10.4c23.4,0,46.8,0,70.2,0c0.5,0,1,0.2,1.6-0.3c-1.8-3.7-2.8-7.7-2.7-11.8c0-1.7-0.6-1.8-2-1.8
	c-21.1,0-42.2,0-63.2,0.1c-1.6,0-1.9-0.4-1.9-1.9c0-31.5,0-63.1,0-94.6c0-1.4,0.2-1.8,1.7-1.8c22.9,0.1,45.9,0.1,68.8,0
	c1.5,0,1.8,0.4,1.8,1.8c-0.1,16.9,0,33.7,0,50.6c0,0.6,0,1.2,0,2c4.2-2.4,8.1-2.5,12.2-0.4c0-0.8,0-1.3,0-1.9
	C-105.7,399.8-105.7,381.3-105.7,362.9z M-154.1,469c1.4,0,2.5,1.2,2.5,2.5c0,1.3-1.2,2.5-2.5,2.5c-1.3,0-2.6-1.1-2.6-2.4
	C-156.7,470.2-155.5,469-154.1,469z"/>
<g>
	<path class="st1" d="M-184.5,373.7c2,0,3.1,1.1,3.1,3.2v0.4h-2v-0.5c0-0.9-0.4-1.2-1.1-1.2c-0.7,0-1.1,0.3-1.1,1.2
		c0,0.9,0.4,1.6,1.8,2.7c1.8,1.5,2.3,2.5,2.3,3.9c0,2-1.1,3.2-3.1,3.2c-2.1,0-3.1-1.1-3.1-3.2v-0.8h2v0.9c0,0.9,0.4,1.2,1.1,1.2
		s1.1-0.3,1.1-1.2c0-0.9-0.4-1.6-1.8-2.7c-1.8-1.5-2.3-2.5-2.3-3.9C-187.6,374.8-186.5,373.7-184.5,373.7z"/>
	<path class="st1" d="M-180.8,373.8h6.5v1.8h-2.2v10.8h-2.1v-10.8h-2.2V373.8z"/>
	<path class="st1" d="M-173.5,376.9c0-2,1.1-3.2,3.2-3.2c2.1,0,3.2,1.1,3.2,3.2v6.5c0,2-1.1,3.2-3.2,3.2c-2.1,0-3.2-1.1-3.2-3.2
		V376.9z M-171.4,383.5c0,0.9,0.4,1.2,1.1,1.2c0.7,0,1.1-0.3,1.1-1.2v-6.8c0-0.9-0.4-1.2-1.1-1.2c-0.7,0-1.1,0.3-1.1,1.2V383.5z"/>
	<path class="st1" d="M-159.6,376.9v1.6c0,2-1,3.1-3.1,3.1h-1v4.7h-2.1v-12.6h3.1C-160.6,373.8-159.6,374.9-159.6,376.9z
		 M-163.7,375.6v4.3h1c0.7,0,1-0.3,1-1.2v-1.9c0-0.9-0.4-1.2-1-1.2H-163.7z"/>
	<path class="st1" d="M-149.4,376.9v1.6c0,2-1,3.1-3.1,3.1h-1v4.7h-2.1v-12.6h3.1C-150.4,373.8-149.4,374.9-149.4,376.9z
		 M-153.5,375.6v4.3h1c0.7,0,1-0.3,1-1.2v-1.9c0-0.9-0.4-1.2-1-1.2H-153.5z"/>
	<path class="st1" d="M-144,386.4c-0.1-0.3-0.2-0.5-0.2-1.5v-2c0-1.2-0.4-1.6-1.4-1.6h-0.7v5.1h-2.1v-12.6h3.2c2.2,0,3.1,1,3.1,2.9
		v1c0,1.3-0.4,2.1-1.4,2.5v0c1.1,0.4,1.4,1.3,1.4,2.7v1.9c0,0.6,0,1.1,0.2,1.5H-144z M-146.3,375.6v3.9h0.8c0.8,0,1.3-0.3,1.3-1.3
		v-1.2c0-0.9-0.3-1.3-1.1-1.3H-146.3z"/>
	<path class="st1" d="M-138.6,379.1h2.9v1.8h-2.9v3.7h3.6v1.8h-5.7v-12.6h5.7v1.8h-3.6V379.1z"/>
	<path class="st1" d="M-130.9,373.7c2,0,3.1,1.1,3.1,3.2v0.4h-2v-0.5c0-0.9-0.4-1.2-1.1-1.2c-0.7,0-1.1,0.3-1.1,1.2
		c0,0.9,0.4,1.6,1.8,2.7c1.8,1.5,2.3,2.5,2.3,3.9c0,2-1.1,3.2-3.1,3.2s-3.1-1.1-3.1-3.2v-0.8h2v0.9c0,0.9,0.4,1.2,1.1,1.2
		c0.7,0,1.1-0.3,1.1-1.2c0-0.9-0.4-1.6-1.8-2.7c-1.8-1.5-2.3-2.5-2.3-3.9C-134,374.8-132.9,373.7-130.9,373.7z"/>
	<path class="st1" d="M-123.7,373.7c2,0,3.1,1.1,3.1,3.2v0.4h-2v-0.5c0-0.9-0.4-1.2-1.1-1.2c-0.7,0-1,0.3-1,1.2
		c0,0.9,0.4,1.6,1.8,2.7c1.8,1.5,2.3,2.5,2.3,3.9c0,2-1.1,3.2-3.1,3.2s-3.1-1.1-3.1-3.2v-0.8h2v0.9c0,0.9,0.4,1.2,1.1,1.2
		c0.7,0,1.1-0.3,1.1-1.2c0-0.9-0.4-1.6-1.8-2.7c-1.8-1.5-2.3-2.5-2.3-3.9C-126.8,374.8-125.8,373.7-123.7,373.7z"/>
</g>
<path class="st1" d="M-112.8,476.8c1.3,2.2,2.6,4.4,3.8,6.6c1.1,2,1.9,4,2.6,6.1h22.9c-2.4-5.4-3.4-11-3.4-16.9
	c0-6,1.3-11.8,1.6-17.7c0.3-5.1-0.8-9.7-4.2-13.6c-2.3-2.6-4.9-5.1-7.4-7.5c-2.2-2.1-4.4-4.2-6.9-6.6c1.4,9.6,2.9,18.6,5,27.6
	c0.3,1.2,0.1,2.1-1.1,2.5c-1.4,0.4-1.9-0.6-2.1-1.6c-0.5-2-1-4-1.4-6.1c-1.1-6.5-2-13.1-3.1-19.7c-0.3-1.8-1.1-3.3-2.9-3.9
	c-3.3-1.2-6.3,1.2-6.3,5.1c0,11.6,0,23.2,0,34.8C-115.7,469.7-114.8,473.4-112.8,476.8z"/>
<path class="st1" d="M-182.8,398.8h56.5c1.2,0,2.3-1,2.3-2.3c0-1.2-1-2.3-2.3-2.3h-56.5c-1.2,0-2.3,1-2.3,2.3
	C-185,397.8-184,398.8-182.8,398.8z"/>
<path class="st1" d="M-126.3,430.9h-56.5c-1.2,0-2.3,1-2.3,2.3c0,1.2,1,2.3,2.3,2.3h56.5c1.2,0,2.3-1,2.3-2.3
	C-124,432-125,430.9-126.3,430.9z"/>
<path class="st1" d="M-126.3,440.1h-56.5c-1.2,0-2.3,1-2.3,2.3c0,1.2,1,2.3,2.3,2.3h56.5c1.2,0,2.3-1,2.3-2.3
	C-124,441.1-125,440.1-126.3,440.1z"/>
<path class="st1" d="M-126.3,449.3h-56.5c-1.2,0-2.3,1-2.3,2.3c0,1.2,1,2.3,2.3,2.3h56.5c1.2,0,2.3-1,2.3-2.3
	C-124,450.3-125,449.3-126.3,449.3z"/>
<path class="st1" d="M-126.3,426.3c1.2,0,2.3-1,2.3-2.3c0-1.2-1-2.3-2.3-2.3h-16.9v4.5H-126.3z"/>
<path class="st1" d="M-182.8,421.8c-1.2,0-2.3,1-2.3,2.3c0,1.2,1,2.3,2.3,2.3h15.9v-4.5H-182.8z"/>
<path class="st1" d="M-126.3,417.1c1.2,0,2.3-1,2.3-2.3c0-1.2-1-2.3-2.3-2.3h-16.9v4.5H-126.3z"/>
<path class="st1" d="M-182.8,412.6c-1.2,0-2.3,1-2.3,2.3c0,1.2,1,2.3,2.3,2.3h15.9v-4.5H-182.8z"/>
<path class="st1" d="M-126.3,407.9c1.2,0,2.3-1,2.3-2.3c0-1.2-1-2.3-2.3-2.3h-16.9v4.5H-126.3z"/>
<path class="st1" d="M-182.8,403.4c-1.2,0-2.3,1-2.3,2.3c0,1.2,1,2.3,2.3,2.3h15.9v-4.5H-182.8z"/>
<rect x="-164.3" y="403.4" class="st1" width="18.5" height="22.8"/>
</svg>
