<?xml version="1.0" encoding="utf-8"?>
<!-- Generator: Adobe Illustrator 19.0.0, SVG Export Plug-In . SVG Version: 6.00 Build 0)  -->
<svg version="1.1" id="Layer_1" xmlns="http://www.w3.org/2000/svg" xmlns:xlink="http://www.w3.org/1999/xlink" x="0px" y="0px"
	 viewBox="-222 345.9 150 150" style="enable-background:new -222 345.9 150 150;" xml:space="preserve">
<style type="text/css">
	.st0{fill:#FFFFFF;}
	.st1{fill:none;stroke:#A7A9AC;stroke-width:6;stroke-miterlimit:10;}
</style>
<g>
	<g>
		<path id="XMLID_5_" class="st0" d="M-197.8,455l4-0.4c0.2,1.4,0.8,2.2,1.4,3c0.8,0.6,1.6,1,3,1c1.2,0,2.2-0.2,3-0.8
			c0.6-0.6,1-1.2,1-2c0-0.4-0.2-0.8-0.4-1.2c-0.2-0.4-0.8-0.6-1.4-0.8c-0.4-0.2-1.6-0.4-3.2-0.8c-2.2-0.6-3.6-1.2-4.5-2
			c-1.2-1-1.8-2.4-1.8-4c0-1,0.2-2,0.8-2.8c0.6-0.8,1.4-1.6,2.4-2s2.4-0.6,4-0.6c2.6,0,4.3,0.6,5.5,1.6c1.2,1,2,2.6,2,4.3l-4,0.2
			c-0.2-1-0.6-1.8-1.2-2.2c-0.6-0.4-1.4-0.6-2.6-0.6s-2,0.2-2.8,0.8c-0.4,0.4-0.6,0.8-0.6,1.2s0.2,0.8,0.6,1.2
			c0.6,0.4,1.8,0.8,3.8,1.4c2,0.6,3.4,1,4.3,1.4c1,0.4,1.6,1.2,2.2,2c0.6,0.8,0.8,2,0.8,3.2c0,1.2-0.4,2.2-1,3.2
			c-0.6,1-1.6,1.8-2.8,2.2c-1.2,0.4-2.6,0.8-4.3,0.8c-2.6,0-4.3-0.6-5.7-1.8C-196.8,459.3-197.4,457.2-197.8,455z"/>
		<path id="XMLID_7_" class="st0" d="M-171.7,447.1v3h-2.6v5.7c0,1.2,0,1.8,0,2s0.2,0.4,0.4,0.4c0.2,0.2,0.4,0.2,0.6,0.2
			c0.4,0,0.8-0.2,1.6-0.4l0.4,3c-0.8,0.4-2,0.6-3,0.6c-0.6,0-1.4-0.2-1.8-0.4c-0.6-0.2-1-0.6-1.2-1s-0.4-0.8-0.6-1.4
			c0-0.4-0.2-1.4-0.2-2.6v-6.3h-1.8v-3h1.8v-2.8l3.8-2.2v5.1C-174.3,447.1-171.7,447.1-171.7,447.1z"/>
		<path id="XMLID_9_" class="st0" d="M-159.6,461.3v-2.2c-0.6,0.8-1.2,1.4-2,1.8c-0.8,0.4-1.8,0.6-2.8,0.6s-1.8-0.2-2.6-0.6
			c-0.8-0.4-1.4-1-1.6-1.8c-0.4-0.8-0.6-1.8-0.6-3.2v-9.1h3.8v6.5c0,2,0,3.2,0.2,3.8c0.2,0.4,0.4,0.8,0.8,1s0.8,0.4,1.4,0.4
			c0.6,0,1.2-0.2,1.8-0.6c0.6-0.4,0.8-0.8,1-1.4c0.2-0.6,0.2-1.8,0.2-4v-6.1h3.8v14.2h-3.4L-159.6,461.3L-159.6,461.3z"/>
		<path id="XMLID_11_" class="st0" d="M-139.1,461.3h-3.6v-2.2c-0.6,0.8-1.2,1.4-2,1.8c-0.8,0.4-1.6,0.6-2.4,0.6c-1.6,0-3-0.6-4.1-2
			s-1.8-3.2-1.8-5.5c0-2.4,0.6-4.3,1.8-5.5c1.2-1.2,2.6-2,4.3-2c1.6,0,3,0.6,4.1,2v-6.7h3.8L-139.1,461.3L-139.1,461.3z M-149.2,454
			c0,1.6,0.2,2.6,0.6,3.4c0.6,1,1.4,1.6,2.6,1.6c0.8,0,1.6-0.4,2.2-1.2c0.6-0.8,1-1.8,1-3.4c0-1.6-0.4-2.8-1-3.6
			c-0.6-0.8-1.4-1-2.4-1c-1,0-1.6,0.4-2.2,1C-149,451.4-149.2,452.6-149.2,454z"/>
		<path id="XMLID_14_" class="st0" d="M-127,456.8l3.8,0.6c-0.4,1.4-1.2,2.4-2.4,3.2c-1,0.8-2.4,1-4,1c-2.6,0-4.3-0.8-5.5-2.4
			c-1-1.4-1.4-3-1.4-4.9c0-2.4,0.6-4.1,1.8-5.5c1.2-1.4,2.8-2,4.7-2c2.2,0,3.8,0.8,5.1,2.2c1.2,1.4,1.8,3.6,1.8,6.5h-9.5
			c0,1.2,0.4,2,1,2.6c0.6,0.6,1.4,1,2.2,1c0.6,0,1.2-0.2,1.6-0.4C-127.6,458.2-127.2,457.6-127,456.8z M-126.8,453
			c0-1.2-0.4-2-0.8-2.6c-0.6-0.6-1.2-0.8-2-0.8c-0.8,0-1.6,0.4-2,1c-0.6,0.6-0.8,1.4-0.8,2.4C-132.4,453-126.8,453-126.8,453z"/>
		<path id="XMLID_17_" class="st0" d="M-107.1,461.3h-3.8V454c0-1.6,0-2.6-0.2-3c-0.2-0.4-0.4-0.8-0.8-1s-0.8-0.4-1.4-0.4
			s-1.2,0.2-1.8,0.6c-0.6,0.4-0.8,0.8-1,1.4c-0.2,0.6-0.2,1.8-0.2,3.4v6.5h-3.8v-14.2h3.6v2.2c1.2-1.6,2.8-2.4,4.7-2.4
			c0.8,0,1.6,0.2,2.4,0.4c0.6,0.4,1.2,0.6,1.6,1.2c0.4,0.6,0.6,1,0.8,1.6c0.2,0.6,0.2,1.4,0.2,2.6v8.5L-107.1,461.3L-107.1,461.3z"
			/>
		<path id="XMLID_19_" class="st0" d="M-96.6,447.1v3h-2.6v5.7c0,1.2,0,1.8,0,2s0.2,0.4,0.4,0.4c0.2,0,0.4,0.2,0.6,0.2
			c0.4,0,0.8-0.2,1.6-0.4l0.4,3c-0.8,0.4-1.8,0.6-3,0.6c-0.6,0-1.4-0.2-1.8-0.4c-0.6-0.2-1-0.6-1.2-1c-0.2-0.4-0.4-0.8-0.6-1.4
			c0-0.4-0.2-1.4-0.2-2.6v-6.3h-1.8v-3h1.8v-2.8l3.8-2.2v5.1C-99.2,447.1-96.6,447.1-96.6,447.1z"/>
	</g>
	<g>
		<path id="XMLID_21_" class="st0" d="M-181.2,484.8v-19.8h7.5c1.4,0,2.4,0,3,0.2c1,0.2,1.8,0.4,2.4,1c0.6,0.4,1.2,1.2,1.6,2
			c0.4,0.8,0.6,1.8,0.6,2.8c0,1.8-0.6,3.2-1.6,4.3c-1,1.2-3,1.8-5.7,1.8h-5.1v8.1h-2.6V484.8z M-178.6,474.6h5.1c1.8,0,3-0.4,3.6-1
			c0.8-0.6,1-1.6,1-2.6c0-0.8-0.2-1.6-0.6-2.2c-0.4-0.6-1-1-1.6-1.2c-0.4-0.2-1.2-0.2-2.4-0.2h-5.1V474.6z"/>
		<path id="XMLID_24_" class="st0" d="M-164,477.7c0-2.6,0.8-4.5,2.2-5.9c1.2-1,2.8-1.6,4.5-1.6c2,0,3.6,0.6,4.7,2
			c1.2,1.4,1.8,3.2,1.8,5.3c0,1.8-0.2,3.4-0.8,4.3c-0.6,1-1.4,1.8-2.4,2.4c-1,0.6-2.2,0.8-3.4,0.8c-2,0-3.6-0.6-4.9-2
			C-163.6,481.7-164,480.1-164,477.7z M-161.6,477.7c0,1.8,0.4,3.2,1.2,4.1c0.8,1,1.8,1.4,3,1.4s2.2-0.4,3-1.4
			c0.8-1,1.2-2.4,1.2-4.1s-0.4-3.2-1.2-4c-0.8-1-1.8-1.4-3-1.4s-2.2,0.4-3,1.4C-161.2,474.8-161.6,475.9-161.6,477.7z"/>
		<path id="XMLID_27_" class="st0" d="M-147.8,484.8v-14.2h2.2v2.2c0.6-1,1-1.8,1.6-2c0.4-0.4,1-0.4,1.6-0.4c0.8,0,1.6,0.2,2.6,0.8
			l-0.8,2.2c-0.6-0.4-1.2-0.6-1.8-0.6c-0.6,0-1,0.2-1.4,0.4c-0.4,0.4-0.8,0.8-1,1.4c-0.2,0.8-0.4,1.8-0.4,2.8v7.5H-147.8z"/>
		<path id="XMLID_29_" class="st0" d="M-133.4,482.7l0.4,2.2c-0.6,0.2-1.4,0.2-1.8,0.2c-0.8,0-1.6-0.2-2-0.4s-0.8-0.6-1-1.2
			c-0.2-0.4-0.4-1.4-0.4-2.8v-8.3h-1.8v-2h1.8v-3.6l2.4-1.4v4.9h2.4v2h-2.4v8.3c0,0.8,0,1.2,0.2,1.4c0,0.2,0.2,0.4,0.4,0.4
			c0.2,0.2,0.4,0.2,0.8,0.2C-134.2,482.9-133.8,482.7-133.4,482.7z"/>
		<path id="XMLID_35_" class="st0" d="M-121.7,483.1c-1,0.8-1.8,1.4-2.6,1.6c-0.8,0.4-1.8,0.4-2.8,0.4c-1.6,0-2.8-0.4-3.6-1.2
			c-0.8-0.8-1.2-1.8-1.2-3c0-0.8,0.2-1.4,0.4-2c0.4-0.6,0.8-1,1.2-1.4c0.6-0.4,1.2-0.6,1.8-0.8c0.4-0.2,1.2-0.2,2.2-0.4
			c2-0.2,3.4-0.6,4.3-0.8c0-0.4,0-0.6,0-0.6c0-1-0.2-1.8-0.6-2.2c-0.6-0.6-1.6-0.8-2.8-0.8c-1.2,0-2,0.2-2.6,0.6
			c-0.6,0.4-1,1.2-1.2,2.2l-2.4-0.4c0.2-1,0.6-1.8,1-2.4c0.6-0.6,1.2-1.2,2.2-1.4c1-0.4,2-0.6,3.2-0.6s2.2,0.2,3,0.4
			c0.8,0.2,1.4,0.6,1.8,1c0.4,0.4,0.6,1,0.8,1.6c0,0.4,0.2,1.2,0.2,2.2v3.2c0,2.2,0,3.8,0.2,4.3c0.2,0.6,0.4,1.2,0.6,1.8h-2.6
			C-121.3,484.4-121.5,483.9-121.7,483.1z M-121.9,477.7c-0.8,0.4-2.2,0.6-4,1c-1,0.2-1.8,0.4-2.2,0.4c-0.4,0.2-0.8,0.4-1,0.8
			c-0.2,0.4-0.4,0.8-0.4,1.2c0,0.6,0.2,1.2,0.8,1.6c0.4,0.4,1.2,0.6,2.2,0.6c1,0,1.8-0.2,2.6-0.6c0.8-0.4,1.2-1,1.6-1.6
			c0.2-0.6,0.4-1.4,0.4-2.4V477.7z"/>
		<path id="XMLID_38_" class="st0" d="M-115.6,484.8v-19.8h2.4v19.8H-115.6z"/>
	</g>
	<g id="XMLID_1_">
		<path id="XMLID_67_" class="st0" d="M-139.9,399c0,7.7,0,15.2,0,22.7c-4.8,0-9.5,0-14.3,0c0-7.5,0-15,0-22.6c-2.8,0-5.5,0-8.5,0
			c0-0.7,0-1.2,0-1.7c0-5.8,0-11.6,0-17.3c0-3.9,2.5-6.4,6.4-6.4c6.2,0,12.3,0,18.5,0c4.1,0,6.6,2.5,6.6,6.5c0,5.7,0,11.5,0,17.2
			c0,0.5,0,0.9,0,1.5C-134.1,399-136.9,399-139.9,399z"/>
		<path id="XMLID_66_" class="st0" d="M-160.5,403.8c0,2.3,0,4.2,0,6c-3.7,0.9-7.4,1.6-10.9,2.7c-2.3,0.7-4.6,1.8-6.9,2.8
			c-0.8,0.4-1.6,1.1-2.3,1.8c-1.4,1.4-1.3,2.3,0.2,3.5c1.3,1,2.8,1.8,4.4,2.5c8,3.5,16.6,5.2,25.4,5.6c11,0.5,21.6-1.1,31.7-5.3
			c1.7-0.7,3.3-1.6,4.9-2.6c2-1.3,2.2-2.8,0.2-4.1c-2.4-1.6-5-3.1-7.7-3.9c-3.9-1.3-8-2-12.1-3.1c0-1.8,0-3.7,0-5.9
			c2.8,0.5,5.5,0.9,8.3,1.5c4.4,0.9,8.7,2.2,12.6,4.6c1.3,0.8,2.7,1.8,3.9,3c3.6,3.6,3.6,8.6,0.1,12.3c-2.9,3.1-6.8,4.9-10.7,6.1
			c-9.8,3.3-20,4.1-30.2,3.9c-9.2-0.3-18.3-1.3-27-4.9c-2.5-1-4.9-2.4-7.1-4.1c-4.9-3.9-5-9.9-0.3-14.1c4.1-3.6,9-5.2,14.1-6.4
			C-166.9,404.9-163.7,404.4-160.5,403.8z"/>
		<path id="XMLID_65_" class="st0" d="M-147,370.5c-4.4,0-7.9-3.4-7.9-7.8c0-4.4,3.5-8,8.1-7.9c4.3,0,7.6,3.4,7.7,7.8
			C-139,367.2-142.5,370.6-147,370.5z"/>
	</g>
	<rect id="XMLID_2_" x="-222" y="345.9" class="st1" width="150" height="150"/>
</g>
</svg>
