<?xml version="1.0" encoding="utf-8"?>
<!-- Generator: Adobe Illustrator 19.0.0, SVG Export Plug-In . SVG Version: 6.00 Build 0)  -->
<svg version="1.1" id="Layer_1" xmlns="http://www.w3.org/2000/svg" xmlns:xlink="http://www.w3.org/1999/xlink" x="0px" y="0px"
	 viewBox="-222 345.9 150 150" style="enable-background:new -222 345.9 150 150;" xml:space="preserve">
<style type="text/css">
	.st0{enable-background:new    ;}
	.st1{fill:#FFFFFF;}
	.st2{fill:none;stroke:#FFFFFF;stroke-width:4;stroke-miterlimit:10;}
	.st3{fill:none;stroke:#FFFFFF;stroke-miterlimit:10;}
	.st4{fill:none;stroke:#A7A9AC;stroke-width:6;stroke-miterlimit:10;}
</style>
<g class="st0">
	<path class="st1" d="M-189.1,480.7l-4.3-16.8h2.3l2,8.5c0.5,2.1,0.9,4.2,1.2,5.8h0c0.3-1.7,0.8-3.7,1.4-5.8l2.2-8.5h2.3l2,8.5
		c0.5,2,0.9,4,1.2,5.7h0c0.3-1.8,0.8-3.7,1.3-5.8l2.2-8.5h2.2l-4.8,16.8h-2.3l-2.1-8.7c-0.5-2.1-0.9-3.8-1.1-5.5h0
		c-0.3,1.7-0.7,3.3-1.3,5.5l-2.4,8.7H-189.1z"/>
	<path class="st1" d="M-170.5,475c0,3,1.9,4.2,4.1,4.2c1.6,0,2.5-0.3,3.3-0.6l0.4,1.6c-0.8,0.3-2.1,0.7-4,0.7
		c-3.7,0-5.9-2.4-5.9-6.1c0-3.6,2.1-6.5,5.6-6.5c3.9,0,5,3.5,5,5.7c0,0.4,0,0.8-0.1,1H-170.5z M-164.1,473.5c0-1.4-0.6-3.6-3-3.6
		c-2.2,0-3.2,2-3.4,3.6H-164.1z"/>
	<path class="st1" d="M-159.3,480.7c0-0.8,0.1-2,0.1-3.1V463h2.2v7.6h0c0.8-1.3,2.2-2.2,4.1-2.2c3,0,5.1,2.5,5.1,6.1
		c0,4.3-2.7,6.4-5.4,6.4c-1.7,0-3.1-0.7-4-2.3h-0.1l-0.1,2H-159.3z M-157.1,475.8c0,0.3,0,0.5,0.1,0.8c0.4,1.5,1.7,2.6,3.3,2.6
		c2.3,0,3.7-1.9,3.7-4.6c0-2.4-1.2-4.5-3.6-4.5c-1.5,0-2.9,1-3.3,2.7c0,0.2-0.1,0.5-0.1,0.9V475.8z"/>
	<path class="st1" d="M-125.6,473.3c-0.1-2.3-0.3-5.2-0.2-7.2h-0.1c-0.6,2-1.3,4.1-2.1,6.4l-3,8.1h-1.6l-2.7-8
		c-0.8-2.4-1.5-4.5-1.9-6.5h0c-0.1,2.1-0.2,4.9-0.3,7.4l-0.4,7.2h-2.1l1.2-16.8h2.8l2.9,8.1c0.7,2.1,1.3,3.9,1.7,5.6h0.1
		c0.4-1.7,1-3.5,1.8-5.6l3-8.1h2.8l1,16.8h-2.1L-125.6,473.3z"/>
	<path class="st1" d="M-113,480.7l-0.2-1.5h-0.1c-0.7,0.9-2,1.8-3.7,1.8c-2.4,0-3.7-1.7-3.7-3.5c0-2.9,2.6-4.5,7.2-4.5v-0.2
		c0-1-0.3-2.8-2.7-2.8c-1.1,0-2.3,0.3-3.1,0.9l-0.5-1.4c1-0.6,2.4-1.1,4-1.1c3.7,0,4.6,2.5,4.6,4.9v4.5c0,1,0,2.1,0.2,2.9H-113z
		 M-113.3,474.5c-2.4,0-5.1,0.4-5.1,2.7c0,1.4,0.9,2.1,2.1,2.1c1.6,0,2.6-1,2.9-2c0.1-0.2,0.1-0.5,0.1-0.7V474.5z"/>
	<path class="st1" d="M-105.2,465.2c0,0.7-0.5,1.3-1.4,1.3c-0.8,0-1.3-0.6-1.3-1.3c0-0.8,0.6-1.4,1.4-1.4
		C-105.7,463.9-105.2,464.5-105.2,465.2z M-107.7,480.7v-12h2.2v12H-107.7z"/>
	<path class="st1" d="M-101.8,463h2.2v17.7h-2.2V463z"/>
</g>
<g id="XMLID_10_">
	<g id="XMLID_6_">
		<path id="XMLID_8_" class="st1" d="M-147.1,420.5l-2.2-1.8l-14.4,11.4c-1,0.8-0.3,2.1,1.1,2.1h33.7c1.3,0,2-1.3,1.1-2.1
			l-14.3-11.4l-2.2,1.8C-145.1,421.1-146.3,421.1-147.1,420.5z"/>
		<path id="XMLID_9_" class="st1" d="M-129.4,398.6h-32.7c-3.5,0-5.3,3.4-2.8,5.4l15.6,12.4l2.2,1.8c0.7,0.6,2,0.6,2.7,0l2.2-1.8
			l15.6-12.4C-124,402-125.8,398.6-129.4,398.6z"/>
		<path id="XMLID_4_" class="st1" d="M-167,405.7l13.7,10.9c0.5,0.4,0.5,1,0,1.4l-13.5,10.8c-0.8,0.6-2.1,0.2-2.1-0.7l-0.2-21.7
			C-169.1,405.5-167.8,405.1-167,405.7z"/>
		<path id="XMLID_5_" class="st1" d="M-124.5,405.7l-13.8,10.9c-0.5,0.4-0.5,1,0,1.4l13.6,10.8c0.8,0.6,2.1,0.2,2.1-0.7l0.2-21.7
			C-122.4,405.5-123.8,405.1-124.5,405.7z"/>
	</g>
	<circle id="XMLID_3_" class="st2" cx="-145.8" cy="415.4" r="39.8"/>
	<circle id="XMLID_7_" class="st3" cx="-145.8" cy="415.4" r="34.6"/>
</g>
<rect id="XMLID_1_" x="-222" y="345.9" class="st4" width="150" height="150"/>
</svg>
